<svg width="1344" height="998" viewBox="0 0 1344 998" fill="none" xmlns="http://www.w3.org/2000/svg">
<path d="M189.185 88.0646H194.431V64.1106H189.185V88.0646Z" fill="#85D0CB"/>
<path d="M203.814 78.6812V73.4357H179.86V78.6812H203.814Z" fill="#85D0CB"/>
<path d="M187.437 80.3133H196.354V71.3961H187.437V80.3133Z" fill="white"/>
<path d="M23.9546 229.342H46.4516V206.845H23.9546L23.9546 229.342Z" fill="#B7DFCD"/>
<path d="M31.8229 233.654H38.5836L38.5836 202.648H31.8229L31.8229 233.654Z" fill="#85D0CB"/>
<path d="M50.7648 221.531V214.771H19.7586V221.531H50.7648Z" fill="#85D0CB"/>
<path d="M29.4915 223.688H41.0314V212.148H29.4915V223.688Z" fill="white"/>
<path d="M20.7493 46.0432H23.3721C26.8163 46.0432 29.6083 43.2512 29.6083 39.807V37.1843C29.6083 33.7402 26.8163 30.9481 23.3721 30.9481H20.7493C17.3052 30.9481 14.5132 33.7402 14.5132 37.1843L14.5132 39.807C14.5132 43.2512 17.3052 46.0432 20.7493 46.0432Z" fill="#B7DFCD"/>
<path d="M22.0316 48.899C22.6345 48.899 23.2126 48.6595 23.6389 48.2332C24.0652 47.807 24.3046 47.2288 24.3046 46.626V30.3652C24.2899 29.767 24.0456 29.1974 23.6225 28.7743C23.1994 28.3512 22.6298 28.1069 22.0316 28.0922C21.4288 28.0922 20.8506 28.3316 20.4244 28.7579C19.9981 29.1842 19.7586 29.7623 19.7586 30.3652V46.626C19.7506 46.9266 19.8038 47.2258 19.9152 47.5052C20.0266 47.7846 20.1938 48.0384 20.4065 48.2511C20.6192 48.4637 20.873 48.6309 21.1524 48.7423C21.4318 48.8537 21.7309 48.907 22.0316 48.899Z" fill="#85D0CB"/>
<path d="M32.4057 38.4666C32.4137 38.1659 32.3604 37.8668 32.249 37.5874C32.1376 37.308 31.9704 37.0542 31.7578 36.8415C31.5451 36.6288 31.2913 36.4617 31.0119 36.3503C30.7325 36.2389 30.4334 36.1856 30.1327 36.1936H13.8719C13.269 36.1936 12.6909 36.433 12.2646 36.8593C11.8383 37.2856 11.5989 37.8637 11.5989 38.4666C11.6136 39.0648 11.8578 39.6344 12.281 40.0575C12.7041 40.4806 13.2737 40.7248 13.8719 40.7396H30.191C30.7836 40.7244 31.3469 40.4782 31.7607 40.0536C32.1744 39.6289 32.4059 39.0595 32.4057 38.4666Z" fill="#85D0CB"/>
<path d="M21.3321 42.1384H22.6726C24.4429 42.1384 25.8781 40.7032 25.8781 38.9329V37.5923C25.8781 35.822 24.4429 34.3868 22.6726 34.3868H21.3321C19.5617 34.3868 18.1265 35.822 18.1265 37.5923V38.9329C18.1265 40.7032 19.5617 42.1384 21.3321 42.1384Z" fill="white"/>
<path d="M1331.93 38.2332H1334.55C1338 38.2332 1340.79 35.4411 1340.79 31.997V29.3743C1340.79 25.9301 1338 23.1381 1334.55 23.1381H1331.93C1328.48 23.1381 1325.69 25.9301 1325.69 29.3743V31.997C1325.69 35.4411 1328.48 38.2332 1331.93 38.2332Z" fill="#B7DFCD"/>
<path d="M1333.21 41.089C1333.51 41.0968 1333.8 41.0453 1334.08 40.9375C1334.35 40.8296 1334.6 40.6678 1334.81 40.4613C1335.03 40.2549 1335.19 40.0081 1335.31 39.7355C1335.42 39.4629 1335.48 39.1701 1335.48 38.8743V22.5552C1335.48 22.2567 1335.42 21.9612 1335.31 21.6854C1335.2 21.4096 1335.03 21.159 1334.82 20.948C1334.61 20.7369 1334.36 20.5695 1334.08 20.4552C1333.8 20.341 1333.51 20.2822 1333.21 20.2822C1332.62 20.2974 1332.05 20.5436 1331.64 20.9682C1331.23 21.3928 1331 21.9624 1331 22.5552V38.8743C1331 39.4617 1331.23 40.025 1331.64 40.4403C1332.06 40.8557 1332.62 41.089 1333.21 41.089Z" fill="#85D0CB"/>
<path d="M1343.64 30.7149C1343.65 30.4143 1343.6 30.1151 1343.49 29.8357C1343.38 29.5563 1343.21 29.3025 1343 29.0898C1342.78 28.8772 1342.53 28.71 1342.25 28.5986C1341.97 28.4872 1341.67 28.4339 1341.37 28.4419H1325.11C1324.81 28.4339 1324.51 28.4872 1324.23 28.5986C1323.95 28.71 1323.7 28.8772 1323.48 29.0898C1323.27 29.3025 1323.1 29.5563 1322.99 29.8357C1322.88 30.1151 1322.83 30.4143 1322.84 30.7149C1322.84 31.3178 1323.08 31.8959 1323.5 32.3222C1323.93 32.7485 1324.51 32.9879 1325.11 32.9879H1341.55C1342.12 32.9438 1342.65 32.685 1343.04 32.2634C1343.43 31.8418 1343.64 31.2887 1343.64 30.7149Z" fill="#85D0CB"/>
<path d="M1332.57 34.4451H1333.91C1335.68 34.4451 1337.12 33.01 1337.12 31.2396V29.8991C1337.12 28.1287 1335.68 26.6936 1333.91 26.6936H1332.57C1330.8 26.6936 1329.36 28.1287 1329.36 29.8991V31.2396C1329.36 33.01 1330.8 34.4451 1332.57 34.4451Z" fill="white"/>
<path d="M289.548 18.0094H292.171C295.615 18.0094 298.407 15.2174 298.407 11.7732V9.15051C298.407 5.70634 295.615 2.9143 292.171 2.9143L289.548 2.9143C286.104 2.9143 283.312 5.70634 283.312 9.15051V11.7732C283.312 15.2174 286.104 18.0094 289.548 18.0094Z" fill="#B7DFCD"/>
<path d="M290.888 20.8651C291.486 20.8503 292.056 20.6061 292.479 20.183C292.902 19.7599 293.147 19.1903 293.161 18.5921V2.27301C293.161 1.67017 292.922 1.09202 292.496 0.665745C292.069 0.239472 291.491 9.53674e-07 290.888 9.53674e-07C290.285 9.53674e-07 289.707 0.239472 289.281 0.665745C288.855 1.09202 288.615 1.67017 288.615 2.27301V18.5338C288.615 19.1421 288.853 19.7264 289.277 20.162C289.702 20.5976 290.28 20.8499 290.888 20.8651Z" fill="#85D0CB"/>
<path d="M301.321 10.4327C301.306 9.83451 301.062 9.2649 300.639 8.84179C300.215 8.41868 299.646 8.17446 299.048 8.15968H282.729C282.13 8.17446 281.561 8.41868 281.138 8.84179C280.715 9.2649 280.47 9.83451 280.456 10.4327C280.456 11.0355 280.695 11.6137 281.121 12.04C281.548 12.4662 282.126 12.7057 282.729 12.7057H299.048C299.651 12.7057 300.229 12.4662 300.655 12.04C301.081 11.6137 301.321 11.0355 301.321 10.4327Z" fill="#85D0CB"/>
<path d="M290.247 14.1626H291.588C293.358 14.1626 294.793 12.7274 294.793 10.957V9.61655C294.793 7.84619 293.358 6.411 291.588 6.411L290.247 6.411C288.477 6.411 287.042 7.84619 287.042 9.61655V10.957C287.042 12.7274 288.477 14.1626 290.247 14.1626Z" fill="white"/>
<path d="M234.937 216.811H237.21C240.107 216.811 242.455 214.462 242.455 211.565V209.292C242.455 206.395 240.107 204.047 237.21 204.047H234.937C232.04 204.047 229.692 206.395 229.692 209.292V211.565C229.692 214.462 232.04 216.811 234.937 216.811Z" fill="#B7DFCD"/>
<path d="M236.103 219.259C236.353 219.259 236.6 219.209 236.83 219.111C237.06 219.014 237.269 218.871 237.443 218.692C237.617 218.512 237.753 218.3 237.843 218.067C237.933 217.834 237.975 217.585 237.968 217.335V203.581C237.975 203.331 237.933 203.082 237.843 202.849C237.753 202.616 237.617 202.403 237.443 202.224C237.269 202.045 237.06 201.902 236.83 201.805C236.6 201.707 236.353 201.657 236.103 201.657C235.593 201.657 235.103 201.86 234.743 202.221C234.382 202.581 234.179 203.071 234.179 203.581V217.335C234.179 217.845 234.382 218.335 234.743 218.695C235.103 219.056 235.593 219.259 236.103 219.259Z" fill="#85D0CB"/>
<path d="M244.903 210.458C244.903 209.948 244.701 209.459 244.34 209.098C243.98 208.737 243.49 208.535 242.98 208.535H229.167C228.917 208.534 228.67 208.585 228.44 208.682C228.21 208.779 228.001 208.922 227.827 209.101C227.653 209.281 227.517 209.493 227.427 209.726C227.337 209.959 227.294 210.208 227.302 210.458C227.294 210.708 227.337 210.957 227.427 211.19C227.517 211.423 227.653 211.635 227.827 211.815C228.001 211.994 228.21 212.137 228.44 212.234C228.67 212.331 228.917 212.381 229.167 212.381H242.98C243.49 212.381 243.98 212.179 244.34 211.818C244.701 211.457 244.903 210.968 244.903 210.458Z" fill="#85D0CB"/>
<path d="M236.103 213.605C236.531 213.605 236.956 213.521 237.352 213.357C237.748 213.193 238.108 212.952 238.411 212.649C238.714 212.346 238.954 211.986 239.118 211.59C239.282 211.194 239.367 210.77 239.367 210.341C239.367 209.47 239.025 208.634 238.414 208.013C237.804 207.391 236.974 207.035 236.103 207.019C235.232 207.035 234.402 207.391 233.791 208.013C233.181 208.634 232.839 209.47 232.839 210.341C232.839 210.77 232.923 211.194 233.087 211.59C233.251 211.986 233.492 212.346 233.795 212.649C234.098 212.952 234.458 213.193 234.854 213.357C235.25 213.521 235.674 213.605 236.103 213.605Z" fill="white"/>
<path d="M1036.73 208.01H1039C1041.9 208.01 1044.25 205.661 1044.25 202.764V200.491C1044.25 197.595 1041.9 195.246 1039 195.246H1036.73C1033.83 195.246 1031.48 197.595 1031.48 200.491V202.764C1031.48 205.661 1033.83 208.01 1036.73 208.01Z" fill="#B7DFCD"/>
<path d="M1037.84 210.399C1038.35 210.399 1038.83 210.197 1039.2 209.836C1039.56 209.475 1039.76 208.986 1039.76 208.476V194.605C1039.76 194.095 1039.56 193.606 1039.2 193.245C1038.83 192.884 1038.35 192.682 1037.84 192.682C1037.33 192.682 1036.84 192.884 1036.48 193.245C1036.11 193.606 1035.91 194.095 1035.91 194.605V208.36C1035.9 208.622 1035.93 208.885 1036.02 209.131C1036.11 209.378 1036.25 209.604 1036.43 209.796C1036.61 209.987 1036.83 210.139 1037.07 210.243C1037.31 210.347 1037.57 210.4 1037.84 210.399Z" fill="#85D0CB"/>
<path d="M1046.64 201.599C1046.64 201.089 1046.43 200.6 1046.07 200.239C1045.71 199.878 1045.22 199.676 1044.71 199.676H1030.96C1030.45 199.676 1029.96 199.878 1029.6 200.239C1029.24 200.6 1029.03 201.089 1029.03 201.599C1029.03 202.109 1029.24 202.598 1029.6 202.959C1029.96 203.32 1030.45 203.522 1030.96 203.522H1044.71C1045.22 203.522 1045.71 203.32 1046.07 202.959C1046.43 202.598 1046.64 202.109 1046.64 201.599Z" fill="#85D0CB"/>
<path d="M1037.84 204.746C1038.27 204.754 1038.7 204.675 1039.1 204.515C1039.51 204.354 1039.87 204.115 1040.18 203.811C1040.49 203.507 1040.74 203.145 1040.9 202.745C1041.07 202.345 1041.16 201.916 1041.16 201.482C1041.16 201.049 1041.07 200.62 1040.9 200.22C1040.74 199.82 1040.49 199.458 1040.18 199.154C1039.87 198.85 1039.51 198.611 1039.1 198.45C1038.7 198.29 1038.27 198.211 1037.84 198.219C1037.41 198.219 1036.98 198.303 1036.59 198.467C1036.19 198.631 1035.83 198.872 1035.53 199.175C1035.22 199.478 1034.98 199.838 1034.82 200.233C1034.66 200.629 1034.57 201.054 1034.57 201.482C1034.57 201.911 1034.66 202.336 1034.82 202.731C1034.98 203.127 1035.22 203.487 1035.53 203.79C1035.83 204.093 1036.19 204.334 1036.59 204.498C1036.98 204.662 1037.41 204.746 1037.84 204.746Z" fill="white"/>
<path d="M1314.09 218.734H1331.46V201.366H1314.09V218.734Z" fill="#B7DFCD"/>
<path d="M1320.1 222.056H1325.34V198.102H1320.1V222.056Z" fill="#85D0CB"/>
<path d="M1334.73 212.731V207.486H1310.77V212.731H1334.73Z" fill="#85D0CB"/>
<path d="M1318.35 214.363H1327.27V205.446H1318.35V214.363Z" fill="white"/>
<path d="M1088.83 31.7056H1095.89V24.6534H1088.83V31.7056Z" fill="#B7DFCD"/>
<path d="M1091.34 33.046H1093.44V23.3129H1091.34V33.046Z" fill="#85D0CB"/>
<path d="M1097.23 29.1996V27.1015H1087.49V29.1996H1097.23Z" fill="#85D0CB"/>
<path d="M1090.58 29.9572H1094.19V26.3437H1090.58V29.9572Z" fill="white"/>
<path d="M171.584 848.883H188.952V831.515H171.584V848.883Z" fill="#B7DFCD"/>
<path d="M177.587 852.206H182.833V828.251H177.587V852.206Z" fill="#85D0CB"/>
<path d="M192.216 842.88V837.635H168.262V842.88H192.216Z" fill="#85D0CB"/>
<path d="M175.839 844.454H184.756V835.537H175.839V844.454Z" fill="white"/>
<path d="M12.3565 993.54H34.8535V971.043H12.3565L12.3565 993.54Z" fill="#B7DFCD"/>
<path d="M20.2247 997.795H26.9855L26.9855 966.789H20.2247L20.2247 997.795Z" fill="#85D0CB"/>
<path d="M39.1083 985.73V978.97H8.10209V985.73H39.1083Z" fill="#85D0CB"/>
<path d="M17.8934 987.828H29.4333V976.288H17.8934V987.828Z" fill="white"/>
<path d="M9.09284 810.125H11.7155C15.1597 810.125 17.9518 807.333 17.9518 803.889V801.267C17.9518 797.822 15.1597 795.03 11.7155 795.03H9.09284C5.64868 795.03 2.85667 797.822 2.85667 801.267L2.85667 803.889C2.85667 807.333 5.64868 810.125 9.09284 810.125Z" fill="#B7DFCD"/>
<path d="M10.3752 812.981C10.6709 812.989 10.9651 812.938 11.2405 812.83C11.516 812.722 11.7671 812.56 11.979 812.354C12.1908 812.147 12.3592 811.901 12.4741 811.628C12.5891 811.355 12.6483 811.063 12.6482 810.767V794.448C12.6482 793.845 12.4087 793.267 11.9824 792.84C11.5561 792.414 10.978 792.175 10.3752 792.175C9.78247 792.19 9.21916 792.436 8.80542 792.861C8.39167 793.285 8.1602 793.855 8.16039 794.448V810.767C8.16039 811.354 8.39372 811.917 8.80906 812.333C9.2244 812.748 9.78777 812.981 10.3752 812.981Z" fill="#85D0CB"/>
<path d="M20.8076 802.607C20.8156 802.306 20.7623 802.007 20.6509 801.728C20.5395 801.448 20.3724 801.195 20.1597 800.982C19.947 800.769 19.6932 800.602 19.4138 800.491C19.1344 800.379 18.8352 800.326 18.5345 800.334H2.2738C1.97312 800.326 1.67393 800.379 1.39453 800.491C1.11513 800.602 0.861347 800.769 0.648658 800.982C0.435969 801.195 0.268788 801.448 0.157398 801.728C0.0460078 802.007 -0.00723369 802.306 0.000788779 802.607C0.000788779 803.21 0.24026 803.788 0.666533 804.214C1.09281 804.641 1.67096 804.88 2.2738 804.88H18.5345C19.1374 804.88 19.7155 804.641 20.1418 804.214C20.5681 803.788 20.8076 803.21 20.8076 802.607Z" fill="#85D0CB"/>
<path d="M9.79229 806.337H11.1328C12.9031 806.337 14.3383 804.902 14.3383 803.131V801.791C14.3383 800.021 12.9031 798.585 11.1328 798.585H9.79229C8.02192 798.585 6.58674 800.021 6.58674 801.791L6.58674 803.131C6.58674 804.902 8.02192 806.337 9.79229 806.337Z" fill="white"/>
<path d="M1320.27 802.374H1322.89C1326.34 802.374 1329.13 799.582 1329.13 796.138V793.515C1329.13 790.071 1326.34 787.279 1322.89 787.279H1320.27C1316.83 787.279 1314.04 790.071 1314.04 793.515V796.138C1314.04 799.582 1316.83 802.374 1320.27 802.374Z" fill="#B7DFCD"/>
<path d="M1321.61 805.288C1322.22 805.288 1322.79 805.049 1323.22 804.622C1323.65 804.196 1323.89 803.618 1323.89 803.015V786.696C1323.89 786.398 1323.83 786.102 1323.71 785.826C1323.6 785.55 1323.43 785.3 1323.22 785.089C1323.01 784.878 1322.76 784.71 1322.48 784.596C1322.21 784.482 1321.91 784.423 1321.61 784.423C1321.01 784.438 1320.44 784.682 1320.02 785.105C1319.6 785.528 1319.35 786.098 1319.34 786.696V803.015C1319.35 803.613 1319.6 804.183 1320.02 804.606C1320.44 805.029 1321.01 805.273 1321.61 805.288Z" fill="#85D0CB"/>
<path d="M1332.04 794.914C1332.05 794.324 1331.83 793.757 1331.43 793.324C1331.03 792.892 1330.48 792.627 1329.89 792.582H1313.57C1312.98 792.598 1312.41 792.844 1312 793.268C1311.59 793.693 1311.35 794.262 1311.35 794.855C1311.35 795.448 1311.59 796.018 1312 796.442C1312.41 796.867 1312.98 797.113 1313.57 797.128H1329.89C1330.46 797.086 1330.99 796.838 1331.39 796.43C1331.78 796.022 1332.02 795.482 1332.04 794.914Z" fill="#85D0CB"/>
<path d="M1320.97 798.586H1322.31C1324.08 798.586 1325.52 797.15 1325.52 795.38V794.04C1325.52 792.269 1324.08 790.834 1322.31 790.834H1320.97C1319.2 790.834 1317.77 792.269 1317.77 794.04V795.38C1317.77 797.15 1319.2 798.586 1320.97 798.586Z" fill="white"/>
<path d="M278.008 782.15H280.63C284.075 782.15 286.867 779.358 286.867 775.914V773.291C286.867 769.847 284.075 767.055 280.63 767.055H278.008C274.563 767.055 271.771 769.847 271.771 773.291V775.914C271.771 779.358 274.563 782.15 278.008 782.15Z" fill="#B7DFCD"/>
<path d="M279.29 785.006C279.888 784.991 280.458 784.747 280.881 784.324C281.304 783.901 281.548 783.331 281.563 782.733V766.472C281.563 766.173 281.504 765.878 281.39 765.602C281.276 765.326 281.108 765.076 280.897 764.865C280.686 764.654 280.435 764.486 280.16 764.372C279.884 764.258 279.588 764.199 279.29 764.199C278.989 764.191 278.69 764.244 278.411 764.356C278.131 764.467 277.877 764.634 277.665 764.847C277.452 765.059 277.285 765.313 277.173 765.593C277.062 765.872 277.009 766.171 277.017 766.472V782.733C277.017 783.336 277.256 783.914 277.683 784.34C278.109 784.766 278.687 785.006 279.29 785.006Z" fill="#85D0CB"/>
<path d="M289.664 774.573C289.664 773.97 289.425 773.392 288.999 772.966C288.572 772.54 287.994 772.3 287.391 772.3H271.13C270.532 772.315 269.963 772.559 269.54 772.982C269.116 773.405 268.872 773.975 268.857 774.573C268.857 775.176 269.097 775.754 269.523 776.18C269.949 776.607 270.528 776.846 271.13 776.846H287.391C287.692 776.854 287.991 776.801 288.27 776.69C288.55 776.578 288.804 776.411 289.016 776.198C289.229 775.986 289.396 775.732 289.508 775.452C289.619 775.173 289.672 774.874 289.664 774.573Z" fill="#85D0CB"/>
<path d="M278.591 778.303H279.931C281.702 778.303 283.137 776.868 283.137 775.098V773.757C283.137 771.987 281.702 770.552 279.931 770.552H278.591C276.82 770.552 275.385 771.987 275.385 773.757V775.098C275.385 776.868 276.82 778.303 278.591 778.303Z" fill="white"/>
<path d="M223.339 980.951H225.612C228.509 980.951 230.857 978.603 230.857 975.706V973.433C230.857 970.536 228.509 968.187 225.612 968.187H223.339C220.442 968.187 218.093 970.536 218.093 973.433V975.706C218.093 978.603 220.442 980.951 223.339 980.951Z" fill="#B7DFCD"/>
<path d="M224.446 983.399C224.956 983.399 225.446 983.196 225.806 982.836C226.167 982.475 226.37 981.986 226.37 981.476V967.721C226.37 967.211 226.167 966.722 225.806 966.361C225.446 966 224.956 965.798 224.446 965.798C223.936 965.798 223.447 966 223.086 966.361C222.726 966.722 222.523 967.211 222.523 967.721V981.417C222.515 981.675 222.559 981.931 222.652 982.171C222.745 982.412 222.886 982.63 223.065 982.815C223.245 983 223.459 983.147 223.697 983.247C223.934 983.348 224.189 983.399 224.446 983.399Z" fill="#85D0CB"/>
<path d="M233.247 974.598C233.247 974.088 233.044 973.599 232.683 973.238C232.323 972.878 231.834 972.675 231.323 972.675H217.569C217.059 972.675 216.57 972.878 216.209 973.238C215.848 973.599 215.646 974.088 215.646 974.598C215.646 975.109 215.848 975.598 216.209 975.958C216.57 976.319 217.059 976.522 217.569 976.522H231.323C231.834 976.522 232.323 976.319 232.683 975.958C233.044 975.598 233.247 975.109 233.247 974.598Z" fill="#85D0CB"/>
<path d="M224.505 977.745C225.37 977.745 226.2 977.402 226.812 976.79C227.425 976.177 227.768 975.347 227.768 974.482C227.768 974.053 227.684 973.629 227.52 973.233C227.356 972.837 227.115 972.477 226.812 972.174C226.509 971.871 226.15 971.63 225.754 971.466C225.358 971.302 224.933 971.218 224.505 971.218C224.071 971.21 223.64 971.289 223.238 971.449C222.835 971.61 222.468 971.849 222.159 972.153C221.85 972.457 221.604 972.819 221.436 973.219C221.269 973.619 221.182 974.048 221.182 974.482C221.182 974.915 221.269 975.344 221.436 975.744C221.604 976.144 221.85 976.507 222.159 976.81C222.468 977.114 222.835 977.353 223.238 977.514C223.64 977.675 224.071 977.753 224.505 977.745Z" fill="white"/>
<path d="M1025.07 972.15H1027.34C1030.24 972.15 1032.59 969.802 1032.59 966.905V964.632C1032.59 961.735 1030.24 959.387 1027.34 959.387H1025.07C1022.17 959.387 1019.83 961.735 1019.83 964.632V966.905C1019.83 969.802 1022.17 972.15 1025.07 972.15Z" fill="#B7DFCD"/>
<path d="M1026.24 974.54C1026.75 974.54 1027.24 974.337 1027.6 973.977C1027.96 973.616 1028.16 973.127 1028.16 972.617V958.862C1028.16 958.352 1027.96 957.863 1027.6 957.502C1027.24 957.141 1026.75 956.939 1026.24 956.939C1025.73 956.939 1025.24 957.141 1024.88 957.502C1024.52 957.863 1024.31 958.352 1024.31 958.862V972.617C1024.31 973.127 1024.52 973.616 1024.88 973.977C1025.24 974.337 1025.73 974.54 1026.24 974.54Z" fill="#85D0CB"/>
<path d="M1035.04 965.739C1035.04 965.229 1034.84 964.74 1034.47 964.379C1034.11 964.019 1033.62 963.816 1033.11 963.816H1019.36C1018.85 963.816 1018.36 964.019 1018 964.379C1017.64 964.74 1017.44 965.229 1017.44 965.739C1017.44 966.25 1017.64 966.739 1018 967.099C1018.36 967.46 1018.85 967.663 1019.36 967.663H1033.11C1033.62 967.663 1034.11 967.46 1034.47 967.099C1034.84 966.739 1035.04 966.25 1035.04 965.739Z" fill="#85D0CB"/>
<path d="M1026.24 968.887C1027.1 968.887 1027.93 968.543 1028.55 967.931C1029.16 967.319 1029.5 966.488 1029.5 965.623C1029.5 964.757 1029.16 963.927 1028.55 963.315C1027.93 962.703 1027.1 962.359 1026.24 962.359C1025.37 962.359 1024.54 962.703 1023.93 963.315C1023.32 963.927 1022.97 964.757 1022.97 965.623C1022.97 966.488 1023.32 967.319 1023.93 967.931C1024.54 968.543 1025.37 968.887 1026.24 968.887Z" fill="white"/>
<path d="M1302.44 982.875H1319.81V965.506H1302.44V982.875Z" fill="#B7DFCD"/>
<path d="M1308.5 986.197H1313.74V962.243H1308.5V986.197Z" fill="#85D0CB"/>
<path d="M1323.13 976.813V971.568H1299.17V976.813H1323.13Z" fill="#85D0CB"/>
<path d="M1306.69 978.503H1315.61V969.586H1306.69V978.503Z" fill="white"/>
<path d="M1077.18 795.846H1084.23V788.794H1077.18V795.846Z" fill="#B7DFCD"/>
<path d="M1079.68 797.187H1081.78V787.454H1079.68V797.187Z" fill="#85D0CB"/>
<path d="M1085.63 793.398V791.3H1075.89V793.398H1085.63Z" fill="#85D0CB"/>
<path d="M1078.98 794.098H1082.6V790.484H1078.98V794.098Z" fill="white"/>
<path d="M386.996 413.047H404.364V395.679H386.996V413.047Z" fill="#B7DFCD"/>
<path d="M393.057 416.311H398.303V392.357H393.057V416.311Z" fill="#85D0CB"/>
<path d="M407.628 406.986V401.741H383.674V406.986H407.628Z" fill="#85D0CB"/>
<path d="M391.251 408.618H400.168V399.701H391.251V408.618Z" fill="white"/>
<path d="M224.504 374.29H227.127C230.571 374.29 233.363 371.498 233.363 368.054V365.431C233.363 361.987 230.571 359.195 227.127 359.195H224.504C221.06 359.195 218.268 361.987 218.268 365.431V368.054C218.268 371.498 221.06 374.29 224.504 374.29Z" fill="#B7DFCD"/>
<path d="M225.845 377.146C226.146 377.154 226.445 377.1 226.724 376.989C227.004 376.878 227.257 376.71 227.47 376.498C227.683 376.285 227.85 376.031 227.961 375.752C228.073 375.472 228.126 375.173 228.118 374.873V358.612C228.126 358.311 228.073 358.012 227.961 357.733C227.85 357.453 227.683 357.199 227.47 356.987C227.257 356.774 227.004 356.607 226.724 356.495C226.445 356.384 226.146 356.331 225.845 356.339C225.242 356.339 224.664 356.578 224.238 357.005C223.811 357.431 223.572 358.009 223.572 358.612V374.873C223.572 375.475 223.811 376.054 224.238 376.48C224.664 376.906 225.242 377.146 225.845 377.146Z" fill="#85D0CB"/>
<path d="M236.277 366.713C236.262 366.12 236.016 365.557 235.591 365.143C235.167 364.73 234.597 364.498 234.004 364.498H217.685C217.098 364.498 216.535 364.732 216.119 365.147C215.704 365.562 215.471 366.126 215.471 366.713C215.463 367.009 215.514 367.303 215.622 367.578C215.73 367.854 215.892 368.105 216.098 368.317C216.305 368.529 216.552 368.697 216.824 368.812C217.097 368.927 217.39 368.986 217.685 368.986H234.004C234.607 368.986 235.185 368.747 235.612 368.32C236.038 367.894 236.277 367.316 236.277 366.713Z" fill="#85D0CB"/>
<path d="M225.204 370.501H226.544C228.315 370.501 229.75 369.066 229.75 367.296V365.955C229.75 364.185 228.315 362.75 226.544 362.75H225.204C223.433 362.75 221.998 364.185 221.998 365.955V367.296C221.998 369.066 223.433 370.501 225.204 370.501Z" fill="white"/>
<path d="M493.42 346.256H496.042C499.486 346.256 502.278 343.464 502.278 340.02V337.397C502.278 333.953 499.486 331.161 496.042 331.161H493.42C489.975 331.161 487.183 333.953 487.183 337.397V340.02C487.183 343.464 489.975 346.256 493.42 346.256Z" fill="#B7DFCD"/>
<path d="M494.702 349.112C494.997 349.119 495.292 349.068 495.567 348.96C495.843 348.852 496.094 348.69 496.306 348.484C496.517 348.278 496.686 348.031 496.801 347.758C496.916 347.486 496.975 347.193 496.975 346.897V330.578C496.975 329.975 496.735 329.397 496.309 328.971C495.883 328.544 495.305 328.305 494.702 328.305C494.104 328.32 493.534 328.564 493.111 328.987C492.688 329.41 492.443 329.98 492.429 330.578V346.897C492.444 347.49 492.69 348.053 493.115 348.467C493.539 348.88 494.109 349.112 494.702 349.112Z" fill="#85D0CB"/>
<path d="M505.134 338.737C505.134 338.134 504.895 337.556 504.469 337.13C504.042 336.704 503.464 336.464 502.861 336.464H486.6C486.3 336.456 486.001 336.51 485.721 336.621C485.442 336.732 485.188 336.899 484.975 337.112C484.763 337.325 484.595 337.579 484.484 337.858C484.373 338.137 484.319 338.437 484.327 338.737C484.327 339.34 484.567 339.918 484.993 340.345C485.419 340.771 485.998 341.01 486.6 341.01H502.861C503.459 340.996 504.029 340.751 504.452 340.328C504.875 339.905 505.119 339.335 505.134 338.737Z" fill="#85D0CB"/>
<path d="M494.06 342.467H495.401C497.171 342.467 498.607 341.032 498.607 339.262V337.921C498.607 336.151 497.171 334.716 495.401 334.716H494.06C492.29 334.716 490.855 336.151 490.855 337.921V339.262C490.855 341.032 492.29 342.467 494.06 342.467Z" fill="white"/>
<path d="M1292.7 360.01H1299.76V352.958H1292.7V360.01Z" fill="#B7DFCD"/>
<path d="M1295.15 361.351H1297.25V351.618H1295.15V361.351Z" fill="#85D0CB"/>
<path d="M1301.1 357.563V355.464H1291.36V357.563H1301.1Z" fill="#85D0CB"/>
<path d="M1294.39 358.204H1298.01V354.59H1294.39V358.204Z" fill="white"/>
<path d="M848.592 270.022H865.961V252.654H848.592V270.022Z" fill="#B7DFCD"/>
<path d="M854.654 273.345H859.899V249.391H854.654V273.345Z" fill="#85D0CB"/>
<path d="M869.224 263.961V258.716H845.27V263.961H869.224Z" fill="#85D0CB"/>
<path d="M852.789 265.593H861.706V256.676H852.789V265.593Z" fill="white"/>
<path d="M686.159 231.323H688.782C692.226 231.323 695.018 228.531 695.018 225.087V222.464C695.018 219.02 692.226 216.228 688.782 216.228H686.159C682.715 216.228 679.923 219.02 679.923 222.464V225.087C679.923 228.531 682.715 231.323 686.159 231.323Z" fill="#B7DFCD"/>
<path d="M687.442 234.121C687.74 234.121 688.036 234.062 688.312 233.948C688.587 233.833 688.838 233.666 689.049 233.455C689.26 233.244 689.427 232.993 689.542 232.717C689.656 232.442 689.715 232.146 689.715 231.848V215.587C689.7 214.989 689.456 214.419 689.033 213.996C688.609 213.573 688.04 213.329 687.442 213.314C686.839 213.314 686.261 213.553 685.834 213.98C685.408 214.406 685.169 214.984 685.169 215.587V231.848C685.161 232.148 685.214 232.447 685.325 232.727C685.437 233.006 685.604 233.26 685.817 233.473C686.029 233.685 686.283 233.853 686.562 233.964C686.842 234.075 687.141 234.129 687.442 234.121Z" fill="#85D0CB"/>
<path d="M697.816 223.746C697.824 223.45 697.772 223.156 697.664 222.881C697.556 222.605 697.395 222.354 697.188 222.142C696.982 221.93 696.735 221.762 696.462 221.647C696.19 221.532 695.897 221.473 695.601 221.473H679.282C678.7 221.503 678.151 221.756 677.75 222.179C677.348 222.602 677.125 223.163 677.126 223.746C677.14 224.344 677.385 224.914 677.808 225.337C678.231 225.76 678.8 226.004 679.399 226.019H695.718C696.29 225.975 696.824 225.716 697.213 225.295C697.602 224.873 697.818 224.32 697.816 223.746Z" fill="#85D0CB"/>
<path d="M686.742 227.418H688.083C689.853 227.418 691.288 225.983 691.288 224.213V222.872C691.288 221.102 689.853 219.667 688.083 219.667H686.742C684.972 219.667 683.537 221.102 683.537 222.872V224.213C683.537 225.983 684.972 227.418 686.742 227.418Z" fill="white"/>
<path d="M900.347 402.09H902.62C905.517 402.09 907.866 399.742 907.866 396.845V394.572C907.866 391.675 905.517 389.326 902.62 389.326H900.347C897.45 389.326 895.102 391.675 895.102 394.572V396.845C895.102 399.742 897.45 402.09 900.347 402.09Z" fill="#B7DFCD"/>
<path d="M901.513 404.422C901.763 404.422 902.01 404.372 902.24 404.274C902.47 404.177 902.679 404.034 902.853 403.855C903.027 403.676 903.163 403.463 903.253 403.23C903.343 402.997 903.386 402.748 903.378 402.498V388.744C903.363 388.259 903.159 387.8 902.811 387.462C902.463 387.125 901.997 386.937 901.513 386.937C901.003 386.937 900.513 387.14 900.153 387.5C899.792 387.861 899.589 388.35 899.589 388.86V402.615C899.619 403.105 899.835 403.564 900.192 403.9C900.55 404.236 901.022 404.423 901.513 404.422Z" fill="#85D0CB"/>
<path d="M910.255 395.738C910.255 395.227 910.053 394.738 909.692 394.378C909.331 394.017 908.842 393.814 908.332 393.814H894.519C894.269 393.814 894.022 393.864 893.792 393.962C893.561 394.059 893.353 394.202 893.179 394.381C893.005 394.56 892.869 394.773 892.779 395.006C892.689 395.239 892.646 395.488 892.654 395.738C892.646 395.987 892.689 396.236 892.779 396.469C892.869 396.702 893.005 396.915 893.179 397.094C893.353 397.274 893.561 397.416 893.792 397.514C894.022 397.611 894.269 397.661 894.519 397.661H908.332C908.842 397.661 909.331 397.458 909.692 397.098C910.053 396.737 910.255 396.248 910.255 395.738Z" fill="#85D0CB"/>
<path d="M901.513 398.885C902.379 398.885 903.209 398.541 903.821 397.929C904.433 397.317 904.777 396.487 904.777 395.621C904.777 394.75 904.435 393.914 903.824 393.292C903.214 392.671 902.384 392.314 901.513 392.299C900.642 392.314 899.812 392.671 899.201 393.292C898.591 393.914 898.249 394.75 898.249 395.621C898.249 396.487 898.593 397.317 899.205 397.929C899.817 398.541 900.647 398.885 901.513 398.885Z" fill="white"/>
</svg>
