<svg width="55" height="57" viewBox="0 0 55 57" fill="none" xmlns="http://www.w3.org/2000/svg">
<path d="M49.7603 30.0052V25.4761H45.7675V22.0793H41.0299V17.3416H40.7915V17.1032H37.1563V12.3358H32.6272V8.34304H28.128V9.44551H26.7871V8.34304H22.258V12.3358H18.8612V17.1032H14.1236V17.3416H13.8852V22.0793H9.11774V25.4761H5.125V30.0052H6.25727V31.3162H5.125V35.8453H9.11774V40.3744H13.8852V43.9798H14.1236V44.2181H18.8612V48.9856H22.258V52.9783H26.7871V51.8758H28.128V52.9783H32.6272V48.9856H37.1563V44.2181H40.7915V43.9798H41.0299V40.3744H45.7675V35.8453H49.7603V31.3162H48.6578V30.0052H49.7603Z" fill="#EA4325"/>
<path d="M44.0093 30.1541V26.8169H41.0296V24.2842H37.5136V20.7682H37.3348V20.5894H34.6531V17.0734H31.2861V14.0938H27.9489V14.9281H26.9656V14.0938H23.5986V17.0734H21.0659V20.5894H17.5499V20.7682H17.4009V24.2842H13.8551V26.8169H10.9053V30.1541H11.7396V31.1672H10.9053V34.5044H13.8551V37.8715H17.4009V40.5531H17.5499V40.7319H21.0659V44.2479H23.5986V47.1978H26.9656V46.3933H27.9489V47.1978H31.2861V44.2479H34.6531V40.7319H37.3348V40.5531H37.5136V37.8715H41.0296V34.5044H44.0093V31.1672H43.175V30.1541H44.0093Z" fill="#FFE500"/>
<path d="M27.8002 42.6687H30.2435V40.5234H32.0611V37.9608H34.6236V37.8417H34.7428V35.8751H37.3053V33.4616H39.4506V31.0182H38.8547V30.3031H39.4506V27.8598H37.3053V26.0422H34.7428V23.4797H34.6236V23.3605H32.0611V20.798H30.2435V18.6527H27.8002V19.2486H27.085V18.6527H24.6715V20.798H22.2282V23.3605H20.2616V23.4797H20.1424V26.0422H17.5799V27.8598H15.4346V30.3031H16.0305V31.0182H15.4346V33.4616H17.5799V35.8751H20.1424V37.8417H20.2616V37.9608H22.2282V40.5234H24.6715V42.6687H27.085V42.0728H27.8002V42.6687Z" fill="#FFF8AC"/>
<path d="M7.83618 16.4179H4.64795V19.6062H7.83618V16.4179Z" fill="#EA4325"/>
<path d="M14.4812 16.0008H12.6338V17.8482H14.4812V16.0008Z" fill="#FFE500"/>
<path d="M13.5573 10.0712H9.35596V14.2726H13.5573V10.0712Z" fill="#FFE500"/>
<path d="M16.626 12.5444H15.4043V13.766H16.626V12.5444Z" fill="#FFE500"/>
<path d="M3.63542 25.6251H0.655762V28.6047H3.63542V25.6251Z" fill="#EA4325"/>
<path d="M7.83618 41.7152H4.64795V44.9034H7.83618V41.7152Z" fill="#EA4325"/>
<path d="M14.4812 43.4732H12.6338V45.3206H14.4812V43.4732Z" fill="#FFE500"/>
<path d="M13.5573 47.0488H9.35596V51.2501H13.5573V47.0488Z" fill="#FFE500"/>
<path d="M16.626 47.5553H15.4043V48.777H16.626V47.5553Z" fill="#FFE500"/>
<path d="M3.63542 35.5771H0.655762V38.5568H3.63542V35.5771Z" fill="#EA4325"/>
<path d="M45.9465 19.5764H49.1348V16.3881H45.9465V19.5764Z" fill="#EA4325"/>
<path d="M39.3015 17.8482H41.1489V16.0007H39.3015V17.8482Z" fill="#FFE500"/>
<path d="M40.2255 14.2726H44.4268V10.0712H40.2255V14.2726Z" fill="#FFE500"/>
<path d="M37.1861 13.766H38.4077V12.5443H37.1861V13.766Z" fill="#FFE500"/>
<path d="M50.9808 25.923H53.9604V22.9433H50.9808V25.923Z" fill="#EA4325"/>
<path d="M45.9465 44.8737H49.1348V41.6854H45.9465V44.8737Z" fill="#EA4325"/>
<path d="M39.3015 45.3206H41.1489V43.4732H39.3015V45.3206Z" fill="#FFE500"/>
<path d="M40.2255 51.2502H44.4268V47.0488H40.2255V51.2502Z" fill="#FFE500"/>
<path d="M37.1861 48.777H38.4077V47.5554H37.1861V48.777Z" fill="#FFE500"/>
<path d="M51.4871 35.6963H54.4668V32.7167H51.4871V35.6963Z" fill="#EA4325"/>
<path d="M8.19282 28.7537H4.49805V32.4485H8.19282V28.7537Z" fill="#FFE500"/>
<path d="M51.0107 28.8729H47.3159V32.5677H51.0107V28.8729Z" fill="#FFE500"/>
<path d="M29.2896 10.7566V7.06179H25.5947V10.7566H29.2896Z" fill="#FFE500"/>
<path d="M29.3188 54.2298V50.535H25.6241V54.2298H29.3188Z" fill="#FFE500"/>
<path d="M50.7128 8.7006H48.2993V13.6468H50.7128V8.7006Z" fill="#EA4325"/>
<path d="M51.9951 12.3656V9.95206H47.0489V12.3656H51.9951Z" fill="#EA4325"/>
<path d="M50.0879 9.92227H48.896V12.3954H50.0879V9.92227Z" fill="#FFE500"/>
<path d="M50.7422 11.7398V10.548H48.2691V11.7398H50.7422Z" fill="#FFE500"/>
<path d="M36.5595 0H34.146V4.94623H36.5595V0Z" fill="#EA4325"/>
<path d="M37.811 3.69477V1.28125L32.8648 1.28125V3.69477L37.811 3.69477Z" fill="#EA4325"/>
<path d="M35.9638 1.22166H34.772V3.69478H35.9638V1.22166Z" fill="#FFE500"/>
<path d="M36.5889 3.06904V1.87718L34.1157 1.87718V3.06904H36.5889Z" fill="#FFE500"/>
<path d="M3.69477 10.2202H1.28125V15.1665H3.69477V10.2202Z" fill="#EA4325"/>
<path d="M4.94629 13.915V11.5015H0.000136375V13.915H4.94629Z" fill="#EA4325"/>
<path d="M3.06784 11.4717H1.87598V13.9448H3.06784V11.4717Z" fill="#FFE500"/>
<path d="M3.72412 13.2893V12.0974H1.25095V13.2893H3.72412Z" fill="#FFE500"/>
<path d="M17.0434 51.9354H14.6299V56.8817H17.0434V51.9354Z" fill="#EA4325"/>
<path d="M18.2949 55.6004V53.1869H13.3487V55.6004H18.2949Z" fill="#EA4325"/>
<path d="M16.417 53.1571H15.2251V55.6302H16.417V53.1571Z" fill="#FFE500"/>
<path d="M17.0435 54.9747V53.7828H14.5703V54.9747H17.0435Z" fill="#FFE500"/>
<path d="M49.581 46.8104H47.1675V51.7567H49.581V46.8104Z" fill="#EA4325"/>
<path d="M50.8325 50.4754V48.0619H45.8864V50.4754H50.8325Z" fill="#EA4325"/>
<path d="M48.9546 48.0619H47.7627V50.535H48.9546V48.0619Z" fill="#FFE500"/>
<path d="M49.6104 49.8795V48.6876H47.1372V49.8795H49.6104Z" fill="#FFE500"/>
<path d="M30.4209 23.5989H23.9253V36.9478H30.4209V23.5989Z" fill="#EA4325"/>
<path d="M33.8481 33.551V27.0553H20.4993V33.551H33.8481Z" fill="#EA4325"/>
<path d="M28.8128 26.9361H25.5649V33.6105H28.8128V26.9361Z" fill="#FFE500"/>
<path d="M30.5117 31.9121V28.6643H23.8373V31.9121H30.5117Z" fill="#FFE500"/>
</svg>
