<svg width="16" height="28" viewBox="0 0 16 28" fill="none" xmlns="http://www.w3.org/2000/svg">
<path d="M16 5.0202L1.19011e-06 5.0202L1.62108e-06 14.8796L16 14.8796L16 5.0202Z" fill="#A0D080"/>
<path d="M13.2719 10.9449L2.72852 10.9449L2.72852 21.8446L13.2719 21.8446L13.2719 10.9449Z" fill="#A0D080"/>
<path d="M10.4047 -2.10219e-07L5.59546 0L5.59546 27.2266L10.4047 27.2266L10.4047 -2.10219e-07Z" fill="#A0D080"/>
<path d="M12.8555 2.75891L3.14453 2.75891L3.14453 6.37708L12.8555 6.37708L12.8555 2.75891Z" fill="#A0D080"/>
<g style="mix-blend-mode:multiply">
<path d="M10.6358 4.07043L5.31787 4.07043L5.31787 9.27157L10.6358 9.27157L10.6358 4.07043Z" fill="#A0D080"/>
</g>
<path d="M11.6532 7.23633L4.39307 7.23633L4.39307 14.3369L11.6532 14.3369L11.6532 7.23633Z" fill="#FFF89F"/>
</svg>
