<svg width="16" height="28" viewBox="0 0 16 28" fill="none" xmlns="http://www.w3.org/2000/svg">
<path d="M1.19011e-06 22.2064L16 22.2064L16 12.3469L1.62108e-06 12.3469L1.19011e-06 22.2064Z" fill="#CE2527"/>
<path d="M2.72814 16.2816L13.2715 16.2816L13.2715 5.38198L2.72814 5.38198L2.72814 16.2816Z" fill="#CE2527"/>
<path d="M5.59529 27.2266L10.4045 27.2266L10.4045 6.42143e-06L5.59529 6.21121e-06L5.59529 27.2266Z" fill="#CE2527"/>
<path d="M3.14449 24.4677L12.8555 24.4677L12.8555 20.8495L3.14449 20.8495L3.14449 24.4677Z" fill="#CE2527"/>
<g style="mix-blend-mode:multiply">
<path d="M5.3642 23.1561L10.6821 23.1561L10.6821 17.955L5.3642 17.955L5.3642 23.1561Z" fill="#CE2527"/>
</g>
<path d="M4.34682 19.9902L11.6069 19.9902L11.6069 12.8896L4.34682 12.8896L4.34682 19.9902Z" fill="#E2B654"/>
</svg>
