<svg width="51" height="44" viewBox="0 0 51 44" fill="none" xmlns="http://www.w3.org/2000/svg">
<path d="M16.052 22.2222V19.2816H8.62856V22.2222H16.052Z" fill="#CE2527"/>
<path d="M10.4601 21.3062V17.6426H4.33822V21.3062H10.4601Z" fill="#CE2527"/>
<path d="M13.7381 22.8487H10.7976V30.2722H13.7381V22.8487Z" fill="#CE2527"/>
<path d="M12.8223 28.4885H9.15881V34.6105H12.8223V28.4885Z" fill="#CE2527"/>
<path d="M9.97829 31.4292H7.03784V38.8526H9.97829V31.4292Z" fill="#CE2527"/>
<path d="M9.06226 37.0208H5.39874V43.1427H9.06226V37.0208Z" fill="#CE2527"/>
<path d="M42.4196 22.2222V19.2816H34.9961V22.2222H42.4196Z" fill="#CE2527"/>
<path d="M46.758 21.3062V17.6426H40.6361V21.3062H46.758Z" fill="#CE2527"/>
<path d="M37.31 30.2723H40.2505V22.8489H37.31V30.2723Z" fill="#CE2527"/>
<path d="M38.2258 34.5623H41.8893V28.4404H38.2258V34.5623Z" fill="#CE2527"/>
<path d="M41.0217 38.8525H43.9621V31.4291H41.0217V38.8525Z" fill="#CE2527"/>
<path d="M41.9859 43.191H45.6494V37.0691H41.9859V43.191Z" fill="#CE2527"/>
<path d="M11.7618 16.8714V13.9311H4.33835V16.8714H11.7618Z" fill="#CE2527"/>
<path d="M6.12195 15.9556V12.292H1.90735e-05V15.9556H6.12195Z" fill="#CE2527"/>
<path d="M9.44784 19.2334H6.50739V26.6568H9.44784V19.2334Z" fill="#CE2527"/>
<path d="M8.53208 24.8253H4.86856V30.9472H8.53208V24.8253Z" fill="#CE2527"/>
<path d="M5.68804 27.7657H2.74759V35.1891H5.68804V27.7657Z" fill="#CE2527"/>
<path d="M4.77204 33.4055H1.10852V39.5274H4.77204V33.4055Z" fill="#CE2527"/>
<path d="M46.8542 16.9679V13.9793H39.72V16.9679H46.8542Z" fill="#CE2527"/>
<path d="M51 16.0519V12.292H45.1191V16.0519H51Z" fill="#CE2527"/>
<path d="M41.9857 26.9942H44.8297V19.3779H41.9857V26.9942Z" fill="#CE2527"/>
<path d="M42.8535 31.381H46.3723V25.1144H42.8535V31.381Z" fill="#CE2527"/>
<path d="M45.601 35.7674H48.445V28.1511H45.601V35.7674Z" fill="#CE2527"/>
<path d="M46.4688 40.2024H49.9876V33.9359H46.4688V40.2024Z" fill="#CE2527"/>
<path d="M36.153 23.9093V34.7552H32.5377H18.5103H14.895V23.9093H7.80896V13.0634H11.2797V9.68909H22.1256H28.9224H39.7683V13.0634H43.239V23.9093H36.153Z" fill="#008BD0"/>
<path d="M7.80896 20.9207V23.9094H14.895V34.7553H36.153V23.9094H43.239V20.9207H7.80896Z" fill="#025682"/>
<path d="M17.0158 9.97826V6.74858H13.6897V3.4707H10.4119V0H13.6897H17.1604V3.22968H20.4865V6.70038V9.97826H17.0158Z" fill="#00639F"/>
<path d="M34.0322 9.97826V6.74858H37.3582V3.4707H40.6361V0H37.3582H33.8875V3.22968H30.5615V6.70038V9.97826H34.0322Z" fill="#00639F"/>
<path d="M21.6917 11.4726H17.6907V15.4736H21.6917V11.4726Z" fill="white"/>
<path d="M33.3573 11.4726H29.3564V15.4736H33.3573V11.4726Z" fill="white"/>
<path d="M18.6068 31.2844H16.1002V37.4064H18.6068V31.2844Z" fill="#002E4D"/>
<path d="M22.6558 31.2844H20.1492V37.4064H22.6558V31.2844Z" fill="#002E4D"/>
<path d="M26.7534 31.2844H24.2468V37.4064H26.7534V31.2844Z" fill="#002E4D"/>
<path d="M30.8506 31.2844H28.344V37.4064H30.8506V31.2844Z" fill="#002E4D"/>
<path d="M34.8996 31.2844H32.393V37.4064H34.8996V31.2844Z" fill="#002E4D"/>
</svg>
