<svg width="51" height="42" viewBox="0 0 51 42" fill="none" xmlns="http://www.w3.org/2000/svg">
<path d="M35.8484 25.0047V14.4581H32.3329H18.6669H15.2009V25.0047H8.31842V35.5018H11.6854V38.7697H22.232H28.8174H39.364V35.5018H42.7309V25.0047H35.8484Z" fill="#684B9B"/>
<path d="M35.8484 21.7863V32.2833H32.3329H18.6669H15.2009V21.7863H8.31842V11.2397H11.6854V7.97174H22.232H28.8174H39.364V11.2397H42.7309V21.7863H35.8484Z" fill="#3C3485"/>
<path d="M17.231 9.70483V6.58542H14.0126V3.36698H10.8436V0H14.0126H17.3795V3.11941H20.6475V6.5359V9.70483H17.231Z" fill="#006CA5"/>
<path d="M33.7689 9.70483V6.58542H36.9873V3.36698H40.2058V0H36.9873H33.6204V3.11941H30.4019V6.5359V9.70483H33.7689Z" fill="#006CA5"/>
<path d="M41.2952 35.5018H44.4641V38.7202H47.633V41.8892H51V38.7202V35.3533H47.8806V32.1348H44.5136H41.2952V35.5018Z" fill="#006CA5"/>
<path d="M41.2456 21.7864H44.365V25.0049H47.5339V28.1738H50.9504V25.0049V21.6379H47.7815V18.3699H44.4145H41.2456V21.7864Z" fill="#3C3485"/>
<path d="M9.70483 35.5018H6.58542V38.7202H3.36698V41.8892H0V38.7202V35.3533H3.11941V32.1348H6.5359H9.70483V35.5018Z" fill="#006CA5"/>
<path d="M9.80395 21.7864H6.63503V25.0049H3.4661V28.1738H0.0991211V25.0049V21.6379H3.21853V18.3699H6.58551H9.80395V21.7864Z" fill="#3C3485"/>
<path d="M20.5979 11.2894H17.8251V14.0622H20.5979V11.2894Z" fill="white"/>
<path d="M33.1747 11.2894H30.4019V14.0622H33.1747V11.2894Z" fill="white"/>
<path d="M29.0649 19.1125H21.9844V20.0037H29.0649V19.1125Z" fill="white"/>
<path d="M18.8154 28.6194H16.3397V34.5612H18.8154V28.6194Z" fill="white"/>
<path d="M22.7765 28.6194H20.3008V34.5612H22.7765V28.6194Z" fill="white"/>
<path d="M26.7379 28.6194H24.2622V34.5612H26.7379V28.6194Z" fill="white"/>
<path d="M30.699 28.6194H28.2233V34.5612H30.699V28.6194Z" fill="white"/>
<path d="M34.6601 28.6194H32.1844V34.5612H34.6601V28.6194Z" fill="white"/>
</svg>
