<svg width="68" height="77" viewBox="0 0 68 77" fill="none" xmlns="http://www.w3.org/2000/svg">
<path d="M51.3316 27.2867H16.4285V62.2441H51.3316V27.2867Z" fill="#B42980"/>
<path d="M49.5192 29.1019H18.2993V60.3704H49.5192V29.1019Z" fill="white"/>
<path d="M38.1186 66.9871V62.654H36.657H31.1029H29.6998V66.9871H26.8935V71.2616H28.2382V72.6084H32.5645H35.2539H39.5218V71.2616H40.9249V66.9871H38.1186Z" fill="#005D2B"/>
<path d="M13.1544 57.0912V63.5323H6.54799V70.0905H0V77H6.54799H13.5052V70.5589H20.1117V63.6494V57.0912H13.1544Z" fill="#CE2527"/>
<path d="M54.6056 57.0912V63.5323H61.2705V70.0905H67.76V77H61.2705H54.3132V70.5589H47.6483V63.6494V57.0912H54.6056Z" fill="#CE2527"/>
<path d="M1.46161 23.3049H6.08028V28.1065H10.7574V32.7909H15.7269V28.1065V23.0707H11.1082V18.3278H6.13874H1.46161V23.3049Z" fill="#CE2527"/>
<path d="M66.2984 23.3049H61.6797V28.1065H57.0026V32.7909H52.0331V28.1065V23.0707H56.6518V18.3278H61.6213H66.2984V23.3049Z" fill="#CE2527"/>
<path d="M24.2042 11.3597V7.67072H20.4625V3.98175H16.7208V0H20.4625H24.438V3.68897H28.1797V7.61217V11.3597H24.2042Z" fill="#CE2527"/>
<path d="M43.5558 11.3597V7.67072H47.2975V3.98175H51.0392V0H47.2975H43.3804V3.68897H39.5803V7.61217V11.3597H43.5558Z" fill="#CE2527"/>
<path d="M54.2548 29.9802V9.19312H47.2975H20.4625H13.5637V29.9802H0V50.7087H6.66492V57.2083H27.3612H40.3988H61.1536V50.7087H67.76V29.9802H54.2548Z" fill="#24B34B"/>
<path d="M26.6597 16.6882H22.5672V20.787H26.6597V16.6882Z" fill="white"/>
<path d="M45.1928 16.6882H41.1003V20.787H45.1928V16.6882Z" fill="white"/>
<path d="M41.4512 55.9202V48.1909H38.8787H28.8814H26.3089V55.9202H21.281V63.6495H23.7365V66.0502H31.4538H36.3063H44.0236V63.6495H46.4791V55.9202H41.4512Z" fill="#0D7F34"/>
<path d="M65.5968 32.7324H2.22165V46.2586H65.5968V32.7324Z" fill="#43BEA8"/>
<path d="M61.9136 38.295H5.90491V40.4616H61.9136V38.295Z" fill="white"/>
</svg>
