<svg width="818" height="298" viewBox="0 0 818 298" fill="none" xmlns="http://www.w3.org/2000/svg">
<path d="M164.457 135.652V33.0234H180.277V17.4016H235.579V33.0234H251.728V88.6553H235.579V104.277H187.395V135.652H164.457ZM187.527 79.625H228.592V42.581H187.527V79.625Z" fill="#E2B654"/>
<path d="M274.073 135.652V110.934H290.091V42.3173H274.073V17.4016H329.31V42.3173H313.161V110.671H329.31V135.652H274.073Z" fill="#E2B654"/>
<path d="M351.655 135.652V110.934H367.606V79.6249H383.623V73.4289H367.606V42.5808H351.655V17.6651H374.725V33.2869H390.742V64.3986H399.838V33.2869H415.79V17.6651H439.057V42.5808H422.908V73.4289H406.891V79.6249H422.908V110.934H439.057V135.652H415.79V120.162H399.838V88.9189H390.742V120.162H374.725V135.652H351.655Z" fill="#E2B654"/>
<path d="M471.685 135.652V120.163H455.668V33.0234H471.685V17.4016H526.922V33.0234H543.137V57.7414H519.869V42.3173H478.738V64.1351H510.905V88.6553H478.738V110.671H519.869V94.9831H543.137V119.899H526.922V135.652H471.685Z" fill="#E2B654"/>
<path d="M581.301 135.652V120.163H565.284V17.4016H588.354V110.671H629.485V94.9831H652.753V119.899H636.538V135.652H581.301Z" fill="#E2B654"/>
<path d="M164.457 117.987V15.6218H180.277V0H235.579V15.6218H251.728V71.2538H235.579V86.8755H187.395V117.987H164.457ZM187.527 62.0257H228.592V24.9157H187.527V62.0257Z" fill="#FFBA08"/>
<path d="M274.073 117.987V93.2693H290.091V24.9157H274.073V0H329.31V24.9157H313.161V93.2693H329.31V117.987H274.073Z" fill="#FFBA08"/>
<path d="M351.655 117.987V93.2693H367.606V62.0257H383.623V55.8297H367.606V24.9157H351.655V0H374.725V15.6218H390.742V46.7335H399.838V15.6218H415.79V0H439.057V24.9157H422.908V55.8297H406.891V62.0257H422.908V93.2693H439.057V117.987H415.79V102.695H399.838V71.3856H390.742V102.695H374.725V118.119L351.655 117.987Z" fill="#FFBA08"/>
<path d="M471.685 117.987V102.695H455.668V15.6218H471.685V0H526.922V15.6218H543.137V40.3398H519.869V24.9157H478.738V46.7335H510.905V71.2538H478.738V93.2693H519.869V77.6475H543.137V102.695H526.922V118.119L471.685 117.987Z" fill="#FFBA08"/>
<path d="M581.301 117.987V102.695H565.284V0.131958H588.354V93.4012H629.485V77.6476H652.753V102.695H636.538V118.119L581.301 117.987Z" fill="#FFBA08"/>
<path d="M0 297.802V273.084H16.0173V204.731H0V179.815H55.0388V204.731H38.8237V273.084H55.0388V297.802H0Z" fill="#E2B654"/>
<path d="M77.4497 297.802V179.815H100.52V195.437H116.537V210.927H132.686V257.462H141.651V179.815H164.919V297.802H141.651V282.312H125.633V266.691H109.418V220.155H100.52V297.802H77.4497Z" fill="#E2B654"/>
<path d="M219.034 297.802V282.312H203.083V251.069H186.868V179.815H209.938V241.775H226.417V273.084H235.513V241.775H251.53V179.815H274.798V251.069H258.583V282.312H242.632V297.802H219.034Z" fill="#E2B654"/>
<path d="M291.211 297.802V210.927H307.228V195.437H323.245V179.815H346.513V195.437H362.531V210.927H378.68V297.802H355.412V266.691H314.347V297.802H291.211ZM314.347 241.775H355.412V220.155H339.395V204.731H330.298V220.155H314.347V241.775Z" fill="#E2B654"/>
<path d="M400.827 297.802V179.815H456.129V195.437H472.147V210.927H488.296V266.691H472.147V282.312H456.129V297.802H400.827ZM423.963 273.084H449.011V257.462H465.028V220.155H449.011V204.731H424.161L423.963 273.084Z" fill="#E2B654"/>
<path d="M526.46 297.802V282.312H510.443V195.437H526.46V179.815H581.763V195.437H597.912V220.155H574.644V204.731H533.579V226.549H565.746V251.069H533.579V273.084H574.644V257.462H597.912V282.312H581.763V297.802H526.46Z" fill="#E2B654"/>
<path d="M620.059 297.802V195.437H636.077V179.815H691.379V195.437H707.594V251.069H691.445V266.691H683.601V273.282H699.421V298H676.482V282.51H660.135V266.888H643.261V298L620.059 297.802ZM643.195 241.775H684.26V204.731H643.195V241.775Z" fill="#E2B654"/>
<path d="M745.693 297.802V282.312H729.675V257.462H752.811V273.084H793.876V251.069H745.693V235.645H729.675V195.437H745.693V179.815H800.995V195.437H817.144V220.155H793.876V204.731H752.811V226.549H800.995V241.775H817.144V282.312H800.995V297.802H745.693Z" fill="#E2B654"/>
<path d="M0 280.665V255.947H16.0173V187.33H0V162.414H55.0388V187.33H38.8237V255.683H55.0388V280.665H0Z" fill="#FFBA08"/>
<path d="M77.4497 280.665V162.677H100.52V178.299H116.537V193.789H132.686V240.325H141.651V162.414H164.919V280.665H141.651V265.241H125.633V249.619H109.418V203.017H100.52V280.665H77.4497Z" fill="#FFBA08"/>
<path d="M219.034 280.665V265.241H203.083V233.931H186.868V162.414H209.938V224.44H226.417V255.683H235.513V224.44H251.53V162.414H274.798V233.668H258.583V264.977H242.632V280.665H219.034Z" fill="#FFBA08"/>
<path d="M291.211 280.665V193.526H307.228V178.036H323.245V162.414H346.513V178.036H362.531V193.526H378.68V280.665H355.412V249.619H314.347V280.665H291.211ZM314.347 224.703H355.412V203.017H339.395V187.593H330.298V203.017H314.347V224.703Z" fill="#FFBA08"/>
<path d="M400.827 280.665V162.677H456.129V178.299H472.147V193.789H488.296V249.619H472.147V265.241H456.129V280.665H400.827ZM423.963 255.947H449.011V240.325H465.028V203.017H449.011V187.593H424.161L423.963 255.947Z" fill="#FFBA08"/>
<path d="M526.46 280.665V265.241H510.443V178.036H526.46V162.414H581.763V178.036H597.912V202.754H574.644V187.33H533.579V209.147H565.746V233.668H533.579V255.683H574.644V240.061H597.912V264.977H581.763V280.665H526.46Z" fill="#FFBA08"/>
<path d="M620.059 280.665V178.036H636.077V162.414H691.379V178.036H707.594V233.668H691.445V249.355H683.601V255.947H699.421V280.665H676.482V265.241H660.135V249.619H643.261V280.665H620.059ZM643.195 224.703H684.26V187.593H643.195V224.703Z" fill="#FFBA08"/>
<path d="M745.693 280.665V265.241H729.675V240.325H752.811V255.947H793.876V233.931H745.693V218.507H729.675V178.299H745.693V162.677H800.995V178.299H817.144V203.017H793.876V187.593H752.811V209.411H800.995V224.703H817.144V265.241H800.995V280.665H745.693Z" fill="#FFBA08"/>
</svg>
