<svg width="86" height="71" viewBox="0 0 86 71" fill="none" xmlns="http://www.w3.org/2000/svg">
<path d="M14.1766 17.6841H8.15015V39.1718H14.1766V17.6841Z" fill="#F0534C"/>
<path d="M14.1766 25.9334H8.15015V39.2212H14.1766V25.9334Z" fill="#00639F"/>
<path d="M77.8497 17.6841H71.8232V39.1718H77.8497V17.6841Z" fill="#F0534C"/>
<path d="M77.8497 25.9334H71.8232V39.2212H77.8497V25.9334Z" fill="#00639F"/>
<path d="M86 35.467H0V42.432H86V35.467Z" fill="#3ABDAA"/>
<path d="M31.762 60.9062V70.835H37.8378V60.9062H31.762Z" fill="#332A74"/>
<path d="M27.1189 51.6692V58.98H42.4813V51.6692H27.1189Z" fill="#2E498F"/>
<path d="M29.9348 56.9054V61.5487H39.7154V56.9054H29.9348Z" fill="#2E498F"/>
<path d="M48.1128 60.9066V70.8353H54.1886V60.9066H48.1128Z" fill="#332A74"/>
<path d="M43.4697 51.7187V59.0294H58.8322V51.7187H43.4697Z" fill="#2E498F"/>
<path d="M46.2361 56.9054V61.5487H56.0166V56.9054H46.2361Z" fill="#2E498F"/>
<path d="M59.1276 14.2264H26.822V57.1029H59.1276V14.2264Z" fill="#B71A2C"/>
<g style="mix-blend-mode:multiply">
<path d="M59.1285 14.2264H42.4324V57.1029H59.1285V14.2264Z" fill="#B71A2C"/>
</g>
<path d="M53.4476 6.56989H32.5527V46.8284H53.4476V6.56989Z" fill="#E8253A"/>
<path d="M48.3108 0H37.6411V38.085H48.3108V0Z" fill="#F0534C"/>
<path d="M51.4717 17.1902H49.15V13.9794H43.42H43.2718H37.5418V17.1902H34.5286V23.4636H37.5418V26.625H43.2718H43.42H49.15V23.4636H51.4717V17.1902Z" fill="#B7E1DE"/>
<path d="M40.0612 28.5513H45.9395V20.4008H40.0612V28.5513Z" fill="#B7E1DE"/>
<path d="M40.0612 20.2527H45.9395V12.1022H40.0612V20.2527Z" fill="#B7E1DE"/>
<path d="M46.1364 16.7951H45.0497V15.2638H42.2835H42.2341H39.5172V16.7951H38.0847V19.7589H39.5172V21.2902H42.2341H42.2835H45.0497V19.7589H46.1364V16.7951Z" fill="white"/>
<path d="M9.48371 44.9019H13.1885L13.1885 33.837H9.48371L9.48371 44.9019Z" fill="#76CBC8"/>
<path d="M12.4477 45.939H16.844V32.7007H12.4477L12.4477 45.939Z" fill="#3ABDAA"/>
<path d="M16.5486 31.8116V46.8282H23.0196V31.8116H16.5486Z" fill="#00639F"/>
<path d="M18.6226 51.1752H22.2285L22.2285 27.4646H18.6226L18.6226 51.1752Z" fill="#76CBC8"/>
<path d="M21.4382 53.4969H25.7852L25.7852 25.1925H21.4382L21.4382 53.4969Z" fill="#2E498F"/>
<path d="M25.4885 23.2658L25.4885 55.4232H31.8607V23.2658H25.4885Z" fill="#B71A2C"/>
<path d="M76.4665 33.7876H72.7617V44.8525H76.4665V33.7876Z" fill="#76CBC8"/>
<path d="M73.5518 32.7008H69.1555V45.9392H73.5518V32.7008Z" fill="#3ABDAA"/>
<path d="M62.981 31.8116V46.8282H69.4519V31.8116H62.981Z" fill="#00639F"/>
<path d="M67.3277 27.4647H63.7217V51.1752H67.3277V27.4647Z" fill="#76CBC8"/>
<path d="M64.5615 25.1923H60.2146V53.4967H64.5615V25.1923Z" fill="#2E498F"/>
<path d="M54.0894 23.266V55.4235H60.4616V23.266H54.0894Z" fill="#B71A2C"/>
<g style="mix-blend-mode:multiply">
<path d="M54.0894 23.266V55.4235H60.4616V23.266H54.0894Z" fill="#B71A2C"/>
</g>
</svg>
