<svg width="289" height="136" viewBox="0 0 289 136" fill="none" xmlns="http://www.w3.org/2000/svg">
<path d="M66.7027 61.3033H60.4727V54.9487H66.7027V61.1372V61.3033ZM79.1628 86.2234H60.5558V79.8687H82.2778V86.0573L79.1628 86.2234ZM85.3928 55.2394H66.7858V49.0094H88.4663V54.9487L85.3928 55.2394ZM82.2778 67.6995H66.7858V61.511H82.2778V67.4087V67.6995ZM82.2778 80.1595V67.6995H88.4663V80.1595H82.2778Z" fill="#E85D04"/>
<path d="M106.99 86.0988H103.917V54.9486H91.4568V48.7186H122.482V54.9486H110.022V85.9326L106.99 86.0988Z" fill="#E85D04"/>
<path d="M150.393 86.099H147.278V67.4089H131.786V86.0159H125.473V54.9489H131.703V61.1374H147.195V54.9489H153.425V85.9329L150.393 86.099ZM147.278 55.115H131.786V48.8849H147.278V54.9489V55.115Z" fill="#E85D04"/>
<path d="M159.738 86.0988H156.623V48.7186H184.533V54.9486H190.763V61.1372H184.533V54.9486H162.853V61.1372H184.533V67.4087H181.46V73.6387H187.773V79.8687H181.584V73.6802H175.313V67.4087H162.853V86.0157L159.738 86.0988ZM190.763 86.0988H187.773V79.8687H193.961V86.0572L190.763 86.0988Z" fill="#E85D04"/>
<path d="M212.444 86.0988H209.37V54.9486H196.91V48.7186H227.936V54.9486H215.476V85.9326L212.444 86.0988Z" fill="#E85D04"/>
<path d="M278.108 135.025H10.3419C7.6024 135.014 4.97828 133.921 3.04118 131.984C1.10407 130.047 0.0109361 127.423 0 124.683V10.3003C0.0109865 7.56466 1.10543 4.9448 3.04371 3.01431C4.98199 1.08381 7.60621 -2.2061e-05 10.3419 3.36901e-10H278.108C280.844 -2.2061e-05 283.468 1.08381 285.406 3.01431C287.345 4.9448 288.439 7.56466 288.45 10.3003V124.683C288.439 127.423 287.346 130.047 285.409 131.984C283.472 133.921 280.848 135.014 278.108 135.025ZM10.3419 6.853C9.88916 6.853 9.44089 6.94219 9.02264 7.11543C8.6044 7.28868 8.22437 7.54258 7.90426 7.86269C7.58415 8.1828 7.33025 8.56283 7.15701 8.98107C6.98377 9.39931 6.89457 9.84758 6.89457 10.3003V124.683C6.89457 125.136 6.98377 125.584 7.15701 126.003C7.33025 126.421 7.58415 126.801 7.90426 127.121C8.22437 127.441 8.6044 127.695 9.02264 127.868C9.44089 128.042 9.88916 128.131 10.3419 128.131H278.108C279.022 128.131 279.899 127.768 280.546 127.121C281.192 126.475 281.555 125.598 281.555 124.683V10.3003C281.555 9.38601 281.192 8.50918 280.546 7.86269C279.899 7.2162 279.022 6.853 278.108 6.853H10.3419Z" fill="#D00000"/>
<path d="M23.7156 111.185H14.5367V120.364H23.7156V111.185Z" fill="#B7DFCD"/>
<path d="M20.4761 109.441H17.7349V122.108H20.4761V109.441Z" fill="#85D0CB"/>
<path d="M25.46 117.124V114.383H12.7923V117.124H25.46Z" fill="#85D0CB"/>
<path d="M21.4314 113.303H16.7381V117.997H21.4314V113.303Z" fill="white"/>
<path d="M23.7156 12.1693H14.5367V21.3481H23.7156V12.1693Z" fill="#B7DFCD"/>
<path d="M20.4761 10.4249H17.7349V23.0926H20.4761V10.4249Z" fill="#85D0CB"/>
<path d="M25.46 18.1502V15.409H12.7923V18.1502H25.46Z" fill="#85D0CB"/>
<path d="M21.4314 14.3291H16.7381V19.0224H21.4314V14.3291Z" fill="white"/>
<path d="M275.865 111.185H266.687V120.364H275.865V111.185Z" fill="#B7DFCD"/>
<path d="M272.667 109.441H269.926V122.108H272.667V109.441Z" fill="#85D0CB"/>
<path d="M277.61 117.124V114.383H264.942V117.124H277.61Z" fill="#85D0CB"/>
<path d="M273.623 113.303H268.929V117.997H273.623V113.303Z" fill="white"/>
<path d="M275.865 12.1693H266.687V21.3481H275.865V12.1693Z" fill="#B7DFCD"/>
<path d="M272.667 10.4249H269.926V23.0926H272.667V10.4249Z" fill="#85D0CB"/>
<path d="M277.61 18.1502V15.409H264.942V18.1502H277.61Z" fill="#85D0CB"/>
</svg>
